<svg width="49" height="49" viewBox="0 0 49 49" fill="none" xmlns="http://www.w3.org/2000/svg">
<path d="M26.5991 4.08352C28.8959 4.08964 30.0617 4.10189 31.0683 4.13048L31.4643 4.14477C31.9217 4.1611 32.3729 4.18152 32.918 4.20602C35.0903 4.3081 36.5726 4.6511 37.8731 5.15539C39.2206 5.67398 40.3558 6.37631 41.491 7.50944C42.5296 8.52972 43.3329 9.7644 43.845 11.1273C44.3493 12.4278 44.6923 13.9101 44.7944 16.0844C44.8189 16.6275 44.8393 17.0787 44.8556 17.5381L44.8679 17.9342C44.8985 18.9387 44.9108 20.1045 44.9148 22.4014L44.9169 23.9244V26.599C44.9219 28.0882 44.9062 29.5774 44.8699 31.0662L44.8577 31.4623C44.8413 31.9216 44.8209 32.3729 44.7964 32.9159C44.6943 35.0903 44.3473 36.5705 43.845 37.8731C43.3329 39.236 42.5296 40.4707 41.491 41.4909C40.4707 42.5295 39.236 43.3329 37.8731 43.845C36.5726 44.3493 35.0903 44.6923 32.918 44.7944L31.4643 44.8556L31.0683 44.8679C30.0617 44.8964 28.8959 44.9107 26.5991 44.9148L25.076 44.9169H22.4034C20.9135 44.9221 19.4237 44.9065 17.9342 44.8699L17.5381 44.8576C17.0535 44.8393 16.5689 44.8182 16.0845 44.7944C13.9121 44.6923 12.4299 44.3493 11.1273 43.845C9.76517 43.3326 8.53121 42.5293 7.51152 41.4909C6.4722 40.4709 5.66811 39.2362 5.15543 37.8731C4.65114 36.5726 4.30814 35.0903 4.20606 32.9159L4.14481 31.4623L4.1346 31.0662C4.09696 29.5774 4.07995 28.0882 4.08356 26.599V22.4014C4.07791 20.9122 4.09288 19.423 4.12848 17.9342L4.14277 17.5381C4.1591 17.0787 4.17952 16.6275 4.20402 16.0844C4.3061 13.9101 4.6491 12.4299 5.15339 11.1273C5.66727 9.76384 6.47276 8.52912 7.51356 7.50944C8.53266 6.47135 9.7659 5.668 11.1273 5.15539C12.4299 4.6511 13.9101 4.3081 16.0845 4.20602C16.6276 4.18152 17.0808 4.1611 17.5381 4.14477L17.9342 4.13252C19.423 4.09624 20.9122 4.08059 22.4014 4.08556L26.5991 4.08352ZM24.5002 14.2919C21.7928 14.2919 19.1963 15.3674 17.2818 17.2818C15.3674 19.1962 14.2919 21.7928 14.2919 24.5002C14.2919 27.2076 15.3674 29.8041 17.2818 31.7186C19.1963 33.633 21.7928 34.7085 24.5002 34.7085C27.2076 34.7085 29.8042 33.633 31.7186 31.7186C33.633 29.8041 34.7086 27.2076 34.7086 24.5002C34.7086 21.7928 33.633 19.1962 31.7186 17.2818C29.8042 15.3674 27.2076 14.2919 24.5002 14.2919ZM24.5002 18.3752C25.3046 18.3751 26.1011 18.5333 26.8442 18.841C27.5874 19.1487 28.2627 19.5998 28.8316 20.1684C29.4004 20.7371 29.8517 21.4122 30.1596 22.1553C30.4675 22.8984 30.6261 23.6948 30.6262 24.4992C30.6264 25.3035 30.4681 26.1 30.1604 26.8432C29.8527 27.5864 29.4017 28.2616 28.833 28.8305C28.2643 29.3993 27.5892 29.8506 26.8461 30.1586C26.1031 30.4665 25.3066 30.6251 24.5023 30.6252C22.8778 30.6252 21.3199 29.9799 20.1712 28.8312C19.0226 27.6826 18.3773 26.1246 18.3773 24.5002C18.3773 22.8757 19.0226 21.3178 20.1712 20.1692C21.3199 19.0205 22.8778 18.3752 24.5023 18.3752M35.221 11.2294C34.5442 11.2294 33.895 11.4982 33.4164 11.9768C32.9378 12.4554 32.6689 13.1046 32.6689 13.7814C32.6689 14.4583 32.9378 15.1074 33.4164 15.586C33.895 16.0646 34.5442 16.3335 35.221 16.3335C35.8979 16.3335 36.547 16.0646 37.0256 15.586C37.5042 15.1074 37.7731 14.4583 37.7731 13.7814C37.7731 13.1046 37.5042 12.4554 37.0256 11.9768C36.547 11.4982 35.8979 11.2294 35.221 11.2294Z" fill="#00091A"/>
</svg>
