<svg width="49" height="49" viewBox="0 0 49 49" fill="none" xmlns="http://www.w3.org/2000/svg">
<g clip-path="url(#clip0_1_73)">
<path d="M41.7419 41.7587H34.4945V30.3861C34.4945 27.6743 34.4378 24.1892 30.7046 24.1892C26.9255 24.1892 26.3498 27.1307 26.3498 30.1855V41.7572H19.0932V18.3735H26.0634V21.5631H26.1568C27.1307 19.721 29.4995 17.7839 33.0337 17.7839C40.3852 17.7839 41.7495 22.6242 41.7495 28.9177V41.7572L41.7419 41.7587ZM10.8948 15.1777C10.341 15.178 9.79246 15.0689 9.28079 14.8568C8.76912 14.6447 8.30432 14.3337 7.91302 13.9417C7.52171 13.5497 7.21159 13.0843 7.00042 12.5723C6.78924 12.0602 6.68117 11.5115 6.68237 10.9576C6.68328 10.1239 6.93137 9.30924 7.39527 8.61654C7.85916 7.92383 8.51804 7.38424 9.28858 7.06597C10.0591 6.7477 10.9067 6.66505 11.7243 6.82847C12.5418 6.9919 13.2925 7.39406 13.8814 7.9841C14.4704 8.57414 14.8712 9.32557 15.0331 10.1434C15.1951 10.9612 15.1109 11.8086 14.7912 12.5786C14.4716 13.3486 13.9308 14.0065 13.2372 14.4691C12.5437 14.9317 11.7285 15.1784 10.8948 15.1777ZM14.53 41.7587H7.25812V18.375H14.53V41.7587ZM45.3801 0H3.61375C1.61853 0 0 1.57872 0 3.53259V45.4689C0 47.4228 1.61853 49.0015 3.61375 49.0015H45.3725C47.3646 49.0015 49 47.4228 49 45.4689V3.53259C49 1.57872 47.3646 0 45.3725 0H45.3801Z" fill="#00091A"/>
</g>
<defs>
<clipPath id="clip0_1_73">
<rect width="49" height="49" fill="white"/>
</clipPath>
</defs>
</svg>
