<svg width="1382" height="193" viewBox="0 0 1382 193" fill="none" xmlns="http://www.w3.org/2000/svg">
<path d="M0.800001 152V18.4H52.2C63.8 18.4 74.1333 19.6 83.2 22C92.4 24.4 99.6 28.7333 104.8 35C110.133 41.2667 112.8 50.2667 112.8 62C112.8 73.6 110.133 82.6 104.8 89C99.6 95.2667 92.4 99.6 83.2 102C74.1333 104.4 63.8 105.6 52.2 105.6H32.4V152H0.800001ZM32.4 79.4H53.2C58.1333 79.4 62.5333 78.9333 66.4 78C70.4 77.0667 73.5333 75.3333 75.8 72.8C78.2 70.2667 79.4 66.6667 79.4 62C79.4 57.3333 78.2 53.8 75.8 51.4C73.5333 48.8667 70.4 47.2 66.4 46.4C62.5333 45.4667 58.1333 45 53.2 45H32.4V79.4ZM159.995 152C151.862 152 145.395 151.333 140.595 150C135.795 148.533 132.329 145.8 130.195 141.8C128.195 137.667 127.195 131.733 127.195 124V18.4H157.595V116C157.595 120.667 158.529 123.733 160.395 125.2C162.262 126.533 165.729 127.2 170.795 127.2H179.395V152H159.995ZM223.578 154.4C217.311 154.4 211.578 153.2 206.378 150.8C201.178 148.4 197.045 145.067 193.978 140.8C190.911 136.4 189.378 131.2 189.378 125.2C189.378 117.067 192.178 110.6 197.778 105.8C203.511 101 211.311 97.4 221.178 95C231.045 92.6 242.378 90.9333 255.178 90C255.178 82.9333 254.045 77.9333 251.778 75C249.511 72.0667 245.111 70.6 238.578 70.6C234.445 70.6 230.778 71.6 227.578 73.6C224.511 75.4667 222.445 78.4 221.378 82.4L195.778 73.2C199.111 66.5333 204.645 61 212.378 56.6C220.245 52.2 229.845 50 241.178 50C255.311 50 266.178 53.1333 273.778 59.4C281.378 65.6667 285.178 76.3333 285.178 91.4V113.2C285.178 117.467 285.311 122.067 285.578 127C285.845 131.933 286.245 136.6 286.778 141C287.311 145.4 287.911 149.067 288.578 152H260.378L256.778 140C253.045 145.2 248.311 148.933 242.578 151.2C236.978 153.333 230.645 154.4 223.578 154.4ZM234.778 133.6C240.778 133.6 245.778 132 249.778 128.8C253.778 125.6 255.778 119.467 255.778 110.4V108C245.245 108.933 236.778 110.4 230.378 112.4C223.978 114.267 220.778 117.8 220.778 123C220.778 126.2 222.111 128.8 224.778 130.8C227.445 132.667 230.778 133.6 234.778 133.6ZM347.925 154.4C336.325 154.4 326.258 152.267 317.725 148C309.325 143.733 303.192 137.467 299.325 129.2L325.125 119.8C326.592 123.933 329.392 127.067 333.525 129.2C337.792 131.2 342.792 132.2 348.525 132.2C353.458 132.2 357.792 131.467 361.525 130C365.392 128.4 367.325 126.067 367.325 123C367.325 120.867 366.192 119.067 363.925 117.6C361.658 116.133 357.658 114.933 351.925 114L334.125 111C324.525 109.4 316.725 106.133 310.725 101.2C304.725 96.2667 301.725 89.6667 301.725 81.4C301.725 74.4667 303.792 68.6667 307.925 64C312.192 59.3333 317.792 55.8667 324.725 53.6C331.658 51.2 339.192 50 347.325 50C356.792 50 365.525 51.7333 373.525 55.2C381.658 58.5333 387.592 64.1333 391.325 72L365.725 81.4C364.792 77.8 362.592 75.4 359.125 74.2C355.658 72.8667 351.658 72.2 347.125 72.2C336.192 72.2 330.725 74.8667 330.725 80.2C330.725 82.2 331.658 83.8667 333.525 85.2C335.392 86.4 338.525 87.4 342.925 88.2L361.325 91.6C373.325 93.7333 382.192 96.8667 387.925 101C393.658 105.133 396.525 111.333 396.525 119.6C396.525 127.333 394.325 133.8 389.925 139C385.525 144.2 379.658 148.067 372.325 150.6C364.992 153.133 356.858 154.4 347.925 154.4ZM453.761 152C445.628 152 439.161 151.333 434.361 150C429.561 148.533 426.094 145.8 423.961 141.8C421.961 137.667 420.961 131.733 420.961 124V76H404.561V52.8H420.961V28H451.361V52.8H472.961V76H451.361V116C451.361 120.667 452.228 123.733 453.961 125.2C455.828 126.533 459.228 127.2 464.161 127.2H472.961V152H453.761ZM516.742 36.4C511.809 36.4 507.542 34.6667 503.942 31.2C500.476 27.6 498.742 23.3333 498.742 18.4C498.742 13.3333 500.476 9.06666 503.942 5.59999C507.542 2.13333 511.809 0.399997 516.742 0.399997C521.809 0.399997 526.076 2.13333 529.542 5.59999C533.009 9.06666 534.742 13.3333 534.742 18.4C534.742 23.3333 533.009 27.6 529.542 31.2C526.076 34.6667 521.809 36.4 516.742 36.4ZM501.342 152V76H482.542V52.8H531.942V152H501.342ZM596.428 154.4C585.495 154.4 576.228 152.2 568.628 147.8C561.161 143.4 555.428 137.267 551.428 129.4C547.561 121.4 545.628 112.2 545.628 101.8C545.628 91.4 547.761 82.3333 552.028 74.6C556.295 66.7333 562.228 60.6667 569.828 56.4C577.561 52.1333 586.428 50 596.428 50C602.161 50 607.828 50.8 613.428 52.4C619.161 54 624.428 56.7333 629.228 60.6C634.161 64.3333 638.161 69.4667 641.228 76L615.828 85.2C614.228 80.9333 611.828 77.9333 608.628 76.2C605.561 74.4667 602.095 73.6 598.228 73.6C594.628 73.6 591.161 74.5333 587.828 76.4C584.495 78.1333 581.761 81.0667 579.628 85.2C577.628 89.3333 576.628 94.9333 576.628 102C576.628 109.2 577.695 114.933 579.828 119.2C581.961 123.333 584.628 126.333 587.828 128.2C591.161 129.933 594.628 130.8 598.228 130.8C602.495 130.8 606.095 130 609.028 128.4C611.961 126.667 614.295 124.333 616.028 121.4L640.828 130.4C637.495 136.4 633.361 141.2 628.428 144.8C623.495 148.267 618.228 150.733 612.628 152.2C607.161 153.667 601.761 154.4 596.428 154.4ZM764.397 154.4C753.464 154.4 744.197 152.2 736.597 147.8C729.13 143.4 723.397 137.267 719.397 129.4C715.53 121.4 713.597 112.2 713.597 101.8C713.597 91.4 715.73 82.3333 719.997 74.6C724.264 66.7333 730.197 60.6667 737.797 56.4C745.53 52.1333 754.397 50 764.397 50C770.13 50 775.797 50.8 781.397 52.4C787.13 54 792.397 56.7333 797.197 60.6C802.13 64.3333 806.13 69.4667 809.197 76L783.797 85.2C782.197 80.9333 779.797 77.9333 776.597 76.2C773.53 74.4667 770.064 73.6 766.197 73.6C762.597 73.6 759.13 74.5333 755.797 76.4C752.464 78.1333 749.73 81.0667 747.597 85.2C745.597 89.3333 744.597 94.9333 744.597 102C744.597 109.2 745.664 114.933 747.797 119.2C749.93 123.333 752.597 126.333 755.797 128.2C759.13 129.933 762.597 130.8 766.197 130.8C770.464 130.8 774.064 130 776.997 128.4C779.93 126.667 782.264 124.333 783.997 121.4L808.797 130.4C805.464 136.4 801.33 141.2 796.397 144.8C791.464 148.267 786.197 150.733 780.597 152.2C775.13 153.667 769.73 154.4 764.397 154.4ZM822.703 152V18.4H853.103V66C855.37 62.2667 859.103 58.6667 864.303 55.2C869.636 51.7333 876.103 50 883.703 50C896.503 50 905.236 53.6 909.903 60.8C914.703 67.8667 917.103 78.1333 917.103 91.6V152H886.703V99.2C886.703 94.5333 886.436 90.2667 885.903 86.4C885.37 82.5333 884.036 79.4667 881.903 77.2C879.903 74.8 876.436 73.6 871.503 73.6C865.103 73.6 860.436 75.9333 857.503 80.6C854.57 85.1333 853.103 91.9333 853.103 101V152H822.703ZM966.156 154.4C959.89 154.4 954.156 153.2 948.956 150.8C943.756 148.4 939.623 145.067 936.556 140.8C933.49 136.4 931.956 131.2 931.956 125.2C931.956 117.067 934.756 110.6 940.356 105.8C946.09 101 953.89 97.4 963.756 95C973.623 92.6 984.956 90.9333 997.756 90C997.756 82.9333 996.623 77.9333 994.356 75C992.09 72.0667 987.69 70.6 981.156 70.6C977.023 70.6 973.356 71.6 970.156 73.6C967.09 75.4667 965.023 78.4 963.956 82.4L938.356 73.2C941.69 66.5333 947.223 61 954.956 56.6C962.823 52.2 972.423 50 983.756 50C997.89 50 1008.76 53.1333 1016.36 59.4C1023.96 65.6667 1027.76 76.3333 1027.76 91.4V113.2C1027.76 117.467 1027.89 122.067 1028.16 127C1028.42 131.933 1028.82 136.6 1029.36 141C1029.89 145.4 1030.49 149.067 1031.16 152H1002.96L999.356 140C995.623 145.2 990.89 148.933 985.156 151.2C979.556 153.333 973.223 154.4 966.156 154.4ZM977.356 133.6C983.356 133.6 988.356 132 992.356 128.8C996.356 125.6 998.356 119.467 998.356 110.4V108C987.823 108.933 979.356 110.4 972.956 112.4C966.556 114.267 963.356 117.8 963.356 123C963.356 126.2 964.69 128.8 967.356 130.8C970.023 132.667 973.356 133.6 977.356 133.6ZM1047.7 152V52.8H1074.3L1078.1 66C1080.37 62.2667 1084.1 58.6667 1089.3 55.2C1094.64 51.7333 1101.1 50 1108.7 50C1121.5 50 1130.24 53.6 1134.9 60.8C1139.7 67.8667 1142.1 78.1333 1142.1 91.6V152H1111.7V99.2C1111.7 94.5333 1111.44 90.2667 1110.9 86.4C1110.37 82.5333 1109.04 79.4667 1106.9 77.2C1104.9 74.8 1101.44 73.6 1096.5 73.6C1090.1 73.6 1085.44 75.9333 1082.5 80.6C1079.57 85.1333 1078.1 91.9333 1078.1 101V152H1047.7ZM1210.76 192.6C1205.29 192.6 1199.76 191.867 1194.16 190.4C1188.56 189.067 1183.36 186.667 1178.56 183.2C1173.76 179.733 1169.82 175 1166.76 169L1191.56 160C1193.42 163.6 1196.09 166.067 1199.56 167.4C1203.02 168.733 1206.49 169.4 1209.96 169.4C1216.36 169.4 1221.49 167.867 1225.36 164.8C1229.22 161.867 1231.16 157.133 1231.16 150.6V132.8C1226.89 138.133 1221.96 142.067 1216.36 144.6C1210.89 147.133 1205.36 148.4 1199.76 148.4C1192.56 148.4 1185.69 146.467 1179.16 142.6C1172.62 138.733 1167.29 133.2 1163.16 126C1159.02 118.8 1156.96 110.2 1156.96 100.2C1156.96 88.6 1159.02 79.1333 1163.16 71.8C1167.29 64.3333 1172.56 58.8 1178.96 55.2C1185.36 51.6 1191.96 49.8 1198.76 49.8C1205.02 49.8 1211.02 51.2 1216.76 54C1222.62 56.8 1227.42 60.9333 1231.16 66.4L1235.16 52.8H1261.36V144.6C1261.36 161.133 1256.89 173.267 1247.96 181C1239.02 188.733 1226.62 192.6 1210.76 192.6ZM1210.56 124.8C1214.56 124.8 1218.16 124.067 1221.36 122.6C1224.69 121 1227.36 118.333 1229.36 114.6C1231.36 110.867 1232.36 105.8 1232.36 99.4C1232.36 89.6667 1230.16 82.9333 1225.76 79.2C1221.49 75.4667 1216.42 73.6 1210.56 73.6C1204.56 73.6 1199.36 75.6 1194.96 79.6C1190.69 83.6 1188.56 89.9333 1188.56 98.6C1188.56 107.4 1190.69 114 1194.96 118.4C1199.36 122.667 1204.56 124.8 1210.56 124.8ZM1330.69 154.4C1320.03 154.4 1310.56 152.333 1302.29 148.2C1294.16 143.933 1287.76 137.867 1283.09 130C1278.56 122.133 1276.29 112.733 1276.29 101.8C1276.29 91.2667 1278.69 82.1333 1283.49 74.4C1288.43 66.6667 1294.89 60.6667 1302.89 56.4C1311.03 52.1333 1319.89 50 1329.49 50C1340.43 50 1349.76 52.6 1357.49 57.8C1365.36 62.8667 1371.29 69.9333 1375.29 79C1379.29 87.9333 1380.96 98.2667 1380.29 110H1306.89C1307.43 116.933 1309.96 122.133 1314.49 125.6C1319.16 129.067 1324.29 130.8 1329.89 130.8C1334.56 130.8 1338.56 130.133 1341.89 128.8C1345.36 127.333 1348.03 125.533 1349.89 123.4L1374.09 132.2C1368.89 139.8 1362.36 145.4 1354.49 149C1346.76 152.6 1338.83 154.4 1330.69 154.4ZM1306.89 92H1352.09C1351.96 85.6 1349.76 80.8 1345.49 77.6C1341.23 74.2667 1336.16 72.6 1330.29 72.6C1324.56 72.6 1319.43 74.1333 1314.89 77.2C1310.49 80.2667 1307.83 85.2 1306.89 92Z" fill="#EB3758"/>
</svg>
