<svg width="49" height="49" viewBox="0 0 49 49" fill="none" xmlns="http://www.w3.org/2000/svg">
<path d="M45.856 12.2498C44.2839 12.9644 42.5893 13.434 40.8335 13.6586C42.6301 12.5765 44.0185 10.8615 44.6718 8.7994C42.9772 9.82023 41.0989 10.5348 39.1185 10.9431C37.5055 9.18731 35.2393 8.16648 32.6668 8.16648C27.8689 8.16648 23.9489 12.0865 23.9489 16.9252C23.9489 17.6194 24.0305 18.2931 24.1735 18.9261C16.9051 18.5586 10.433 15.0673 6.12512 9.7794C5.3697 11.0656 4.94095 12.5765 4.94095 14.169C4.94095 17.2111 6.4722 19.9061 8.84054 21.4373C7.39095 21.4373 6.04345 21.029 4.85929 20.4165V20.4777C4.85929 24.7244 7.88095 28.2769 11.8826 29.0731C10.5981 29.4262 9.24895 29.4752 7.9422 29.2161C8.49673 30.9565 9.58276 32.4795 11.0476 33.5708C12.5125 34.6621 14.2825 35.2669 16.1089 35.3002C13.013 37.7513 9.17539 39.0761 5.22679 39.0569C4.53262 39.0569 3.83845 39.0161 3.14429 38.9344C7.02345 41.4252 11.6376 42.8748 16.5785 42.8748C32.6668 42.8748 41.5072 29.5223 41.5072 17.9461C41.5072 17.5581 41.5072 17.1906 41.4868 16.8027C43.2018 15.5777 44.6718 14.0261 45.856 12.2498Z" fill="#00091A"/>
</svg>
