<svg width="49" height="49" viewBox="0 0 49 49" fill="none" xmlns="http://www.w3.org/2000/svg">
<path d="M20.4163 30.6252L31.0126 24.5002L20.4163 18.3752V30.6252ZM44.018 14.6389C44.2834 15.5985 44.4671 16.8848 44.5896 18.5181C44.7326 20.1514 44.7938 21.5602 44.7938 22.7852L44.9163 24.5002C44.9163 28.9714 44.5896 32.2585 44.018 34.3614C43.5076 36.1989 42.3234 37.3831 40.4859 37.8935C39.5263 38.1589 37.7705 38.3427 35.0755 38.4652C32.4213 38.6081 29.9917 38.6694 27.7459 38.6694L24.4996 38.7919C15.9451 38.7919 10.6163 38.4652 8.51339 37.8935C6.67589 37.3831 5.49173 36.1989 4.98131 34.3614C4.71589 33.4019 4.53214 32.1156 4.40964 30.4823C4.26673 28.8489 4.20548 27.4402 4.20548 26.2152L4.08298 24.5002C4.08298 20.0289 4.40964 16.7419 4.98131 14.6389C5.49173 12.8014 6.67589 11.6173 8.51339 11.1069C9.47298 10.8414 11.2288 10.6577 13.9238 10.5352C16.578 10.3923 19.0076 10.331 21.2534 10.331L24.4996 10.2085C33.0542 10.2085 38.383 10.5352 40.4859 11.1069C42.3234 11.6173 43.5076 12.8014 44.018 14.6389Z" fill="#00091A"/>
</svg>
